<svg width="80" height="80" viewBox="0 0 80 80" fill="none" xmlns="http://www.w3.org/2000/svg">
<rect width="80" height="80" rx="5" fill="#1E1E1E"/>
<path d="M13.25 42.7812V36.5117H19.5195V42.7812H13.25ZM20.75 35.2812V29.0117H27.0195V35.2812H20.75ZM20.75 42.7812V36.5117H27.0195V42.7812H20.75ZM20.75 50.2812V44.0117H27.0195V50.2812H20.75ZM20.75 57.7812V51.5117H27.0195V57.7812H20.75ZM28.25 27.7812V21.5117H34.5195V27.7812H28.25ZM28.25 35.2812V29.0117H34.5195V35.2812H28.25ZM28.25 42.7812V36.5117H34.5195V42.7812H28.25ZM28.25 57.7812V51.5117H34.5195V57.7812H28.25ZM28.25 65.2812V59.0117H34.5195V65.2812H28.25ZM35.75 20.2812V14.0117H42.0195V20.2812H35.75ZM35.75 35.2812V29.0117H42.0195V35.2812H35.75ZM35.75 65.2812V59.0117H42.0195V65.2812H35.75ZM43.25 35.2812V29.0117H49.5195V35.2812H43.25ZM43.25 65.2812V59.0117H49.5195V65.2812H43.25ZM50.75 27.7812V21.5117H57.0195V27.7812H50.75ZM50.75 50.2812V44.0117H57.0195V50.2812H50.75ZM50.75 57.7812V51.5117H57.0195V57.7812H50.75Z" fill="white"/>
</svg>
