<svg width="80" height="80" viewBox="0 0 80 80" fill="none" xmlns="http://www.w3.org/2000/svg">
<rect width="80" height="80" rx="5" fill="#1E1E1E"/>
<path d="M17 42.7812V36.5117H23.2695V42.7812H17ZM24.5 35.2812V29.0117H30.7695V35.2812H24.5ZM24.5 42.7812V36.5117H30.7695V42.7812H24.5ZM24.5 50.2812V44.0117H30.7695V50.2812H24.5ZM24.5 57.7812V51.5117H30.7695V57.7812H24.5ZM32 27.7812V21.5117H38.2695V27.7812H32ZM32 35.2812V29.0117H38.2695V35.2812H32ZM32 42.7812V36.5117H38.2695V42.7812H32ZM32 57.7812V51.5117H38.2695V57.7812H32ZM32 65.2812V59.0117H38.2695V65.2812H32ZM39.5 20.2812V14.0117H45.7695V20.2812H39.5ZM39.5 35.2812V29.0117H45.7695V35.2812H39.5ZM39.5 65.2812V59.0117H45.7695V65.2812H39.5ZM47 35.2812V29.0117H53.2695V35.2812H47ZM47 65.2812V59.0117H53.2695V65.2812H47ZM54.5 27.7812V21.5117H60.7695V27.7812H54.5ZM54.5 50.2812V44.0117H60.7695V50.2812H54.5ZM54.5 57.7812V51.5117H60.7695V57.7812H54.5Z" fill="white"/>
</svg>
