<svg width="500" height="500" viewBox="0 0 500 500" fill="none" xmlns="http://www.w3.org/2000/svg">
<rect width="500" height="500" rx="250" fill="url(#paint0_linear_2083_381)"/>
<path d="M355.053 250C351.27 250 347.682 250.689 344.207 251.652C345.956 247.392 346.953 242.742 346.953 237.85C346.953 228.183 343.112 218.912 336.277 212.076C329.441 205.24 320.17 201.4 310.503 201.4C302.59 201.423 294.903 204.044 288.624 208.86C285.779 197.48 279.213 187.377 269.969 180.155C260.725 172.933 249.333 169.007 237.603 169C226.687 169.006 216.043 172.406 207.146 178.729C198.248 185.052 191.537 193.985 187.942 204.292C179.032 201.537 169.632 200.738 160.385 201.949C151.138 203.16 142.262 206.352 134.362 211.309C126.462 216.265 119.725 222.868 114.611 230.667C109.497 238.466 106.127 247.276 104.731 256.497C103.334 265.718 103.944 275.132 106.52 284.095C109.095 293.058 113.575 301.36 119.653 308.433C125.731 315.506 133.265 321.184 141.738 325.079C150.212 328.973 159.427 330.993 168.753 331H355.053C377.425 331 395.553 312.872 395.553 290.5C395.553 268.128 377.425 250 355.053 250Z" fill="#E1E8ED"/>
<defs>
<linearGradient id="paint0_linear_2083_381" x1="250" y1="0" x2="250" y2="500" gradientUnits="userSpaceOnUse">
<stop stop-color="#0062FF"/>
<stop offset="0.842686" stop-color="#0090FE"/>
</linearGradient>
</defs>
</svg>
